<svg width="21" height="25" viewBox="0 0 21 25" fill="none" xmlns="http://www.w3.org/2000/svg">
<path d="M15 4H3C2.46957 4 1.96086 4.21071 1.58579 4.58579C1.21071 4.96086 1 5.46957 1 6V22C1 22.5304 1.21071 23.0391 1.58579 23.4142C1.96086 23.7893 2.46957 24 3 24H15C15.5304 24 16.0391 23.7893 16.4142 23.4142C16.7893 23.0391 17 22.5304 17 22L17 6C17 4.89543 16.1046 4 15 4V4Z" stroke="#708598" stroke-width="1.5" stroke-linecap="round" stroke-linejoin="round"/>
<path d="M12.9999 14.0005H4.99988" stroke="#708598" stroke-width="1.5" stroke-linecap="round" stroke-linejoin="round"/>
<path d="M12.9999 18H4.99988" stroke="#708598" stroke-width="1.5" stroke-linecap="round" stroke-linejoin="round"/>
<path d="M9.99988 10H7.49988H4.99988" stroke="#708598" stroke-width="1.5" stroke-linecap="round" stroke-linejoin="round"/>
<circle cx="16" cy="5" r="4" fill="#E92F2F" stroke="#FAFBFC" stroke-width="2"/>
</svg>
